<svg width="860" height="400" viewBox="0 0 860 400" xmlns="http://www.w3.org/2000/svg">
  <defs>
    <linearGradient id="bg" x1="0%" y1="0%" x2="100%" y2="100%">
      <stop offset="0%" stop-color="#050510"/>
      <stop offset="100%" stop-color="#0d0d2e"/>
    </linearGradient>
    <linearGradient id="entityG" x1="0%" y1="0%" x2="100%" y2="100%">
      <stop offset="0%" stop-color="#1e3a5f"/><stop offset="100%" stop-color="#1e40af"/>
    </linearGradient>
    <linearGradient id="enemyG" x1="0%" y1="0%" x2="100%" y2="100%">
      <stop offset="0%" stop-color="#7f1d1d"/><stop offset="100%" stop-color="#b91c1c"/>
    </linearGradient>
    <linearGradient id="towerG" x1="0%" y1="0%" x2="100%" y2="100%">
      <stop offset="0%" stop-color="#14532d"/><stop offset="100%" stop-color="#15803d"/>
    </linearGradient>
    <marker id="aBlue" markerWidth="8" markerHeight="6" refX="8" refY="3" orient="auto">
      <polygon points="0 0, 8 3, 0 6" fill="#60a5fa"/>
    </marker>
    <marker id="aRed" markerWidth="8" markerHeight="6" refX="8" refY="3" orient="auto">
      <polygon points="0 0, 8 3, 0 6" fill="#f87171"/>
    </marker>
    <marker id="aGreen" markerWidth="8" markerHeight="6" refX="8" refY="3" orient="auto">
      <polygon points="0 0, 8 3, 0 6" fill="#4ade80"/>
    </marker>
    <marker id="aPurple" markerWidth="8" markerHeight="6" refX="8" refY="3" orient="auto">
      <polygon points="0 0, 8 3, 0 6" fill="#c084fc"/>
    </marker>
  </defs>

  <rect width="860" height="400" rx="16" fill="url(#bg)"/>

  <!-- Subtle grid -->
  <g opacity="0.04" stroke="#ffffff" stroke-width="0.5">
    <line x1="0" y1="50" x2="860" y2="50"/>
    <line x1="0" y1="100" x2="860" y2="100"/>
    <line x1="0" y1="150" x2="860" y2="150"/>
    <line x1="0" y1="200" x2="860" y2="200"/>
    <line x1="0" y1="250" x2="860" y2="250"/>
    <line x1="0" y1="300" x2="860" y2="300"/>
    <line x1="0" y1="350" x2="860" y2="350"/>
    <line x1="100" y1="0" x2="100" y2="400"/>
    <line x1="200" y1="0" x2="200" y2="400"/>
    <line x1="400" y1="0" x2="400" y2="400"/>
    <line x1="600" y1="0" x2="600" y2="400"/>
    <line x1="750" y1="0" x2="750" y2="400"/>
  </g>

  <!-- ENTITY (root) -->
  <rect x="320" y="20" width="220" height="60" rx="10" fill="url(#entityG)" stroke="#60a5fa" stroke-width="2"/>
  <text x="430" y="46" text-anchor="middle" font-family="'Trebuchet MS',Arial" font-size="15" font-weight="bold" fill="#bfdbfe">Entity</text>
  <text x="430" y="64" text-anchor="middle" font-family="'Courier New',monospace" font-size="10" fill="#93c5fd">« abstract base »</text>

  <!-- ENEMY (mid) -->
  <rect x="60" y="130" width="200" height="58" rx="10" fill="url(#enemyG)" stroke="#f87171" stroke-width="2"/>
  <text x="160" y="156" text-anchor="middle" font-family="'Trebuchet MS',Arial" font-size="14" font-weight="bold" fill="#fecaca">Enemy</text>
  <text x="160" y="174" text-anchor="middle" font-family="'Courier New',monospace" font-size="9" fill="#fca5a5">« abstract »  move() · render()</text>

  <!-- TOWER (mid) -->
  <rect x="600" y="130" width="200" height="58" rx="10" fill="url(#towerG)" stroke="#4ade80" stroke-width="2"/>
  <text x="700" y="156" text-anchor="middle" font-family="'Trebuchet MS',Arial" font-size="14" font-weight="bold" fill="#bbf7d0">Tower</text>
  <text x="700" y="174" text-anchor="middle" font-family="'Courier New',monospace" font-size="9" fill="#86efac">« abstract »  attack() · render()</text>

  <!-- Entity → Enemy -->
  <line x1="370" y1="80" x2="210" y2="130" stroke="#60a5fa" stroke-width="2" marker-end="url(#aBlue)"/>
  <!-- Entity → Tower -->
  <line x1="490" y1="80" x2="650" y2="130" stroke="#60a5fa" stroke-width="2" marker-end="url(#aBlue)"/>

  <!-- Enemy children -->
  <rect x="10" y="250" width="140" height="50" rx="8" fill="#450a0a" stroke="#f87171" stroke-width="1.5"/>
  <text x="80" y="272" text-anchor="middle" font-family="'Trebuchet MS',Arial" font-size="12" font-weight="bold" fill="#fca5a5">BasicEnemy</text>
  <text x="80" y="290" text-anchor="middle" font-family="'Courier New',monospace" font-size="9" fill="#fecaca">HP 100 · Spd 60</text>

  <rect x="162" y="250" width="140" height="50" rx="8" fill="#450a0a" stroke="#f87171" stroke-width="1.5"/>
  <text x="232" y="272" text-anchor="middle" font-family="'Trebuchet MS',Arial" font-size="12" font-weight="bold" fill="#fca5a5">FastEnemy</text>
  <text x="232" y="290" text-anchor="middle" font-family="'Courier New',monospace" font-size="9" fill="#fecaca">HP 80 · Spd 80</text>

  <rect x="10" y="318" width="140" height="50" rx="8" fill="#450a0a" stroke="#f87171" stroke-width="1.5"/>
  <text x="80" y="340" text-anchor="middle" font-family="'Trebuchet MS',Arial" font-size="12" font-weight="bold" fill="#fca5a5">TankEnemy</text>
  <text x="80" y="358" text-anchor="middle" font-family="'Courier New',monospace" font-size="9" fill="#fecaca">HP 300 · Spd 35</text>

  <rect x="162" y="318" width="140" height="50" rx="8" fill="#450a0a" stroke="#f87171" stroke-width="1.5"/>
  <text x="232" y="340" text-anchor="middle" font-family="'Trebuchet MS',Arial" font-size="12" font-weight="bold" fill="#fca5a5">FlyingEnemy</text>
  <text x="232" y="358" text-anchor="middle" font-family="'Courier New',monospace" font-size="9" fill="#fecaca">HP 160 · Straight</text>

  <!-- ShieldedEnemy (custom) -->
  <rect x="86" y="250" width="156" height="50" rx="8" fill="#2d0a50" stroke="#c084fc" stroke-width="2"/>
  <!-- positioned to show it's special -->
  <rect x="314" y="250" width="160" height="50" rx="8" fill="#2d0a50" stroke="#c084fc" stroke-width="2"/>
  <text x="394" y="272" text-anchor="middle" font-family="'Trebuchet MS',Arial" font-size="12" font-weight="bold" fill="#e9d5ff">ShieldedEnemy ✦</text>
  <text x="394" y="290" text-anchor="middle" font-family="'Courier New',monospace" font-size="9" fill="#ddd6fe">HP 120 · 3-hit shield</text>

  <!-- Enemy arrows -->
  <line x1="120" y1="188" x2="80" y2="250" stroke="#f87171" stroke-width="1.5" stroke-dasharray="5,3" marker-end="url(#aRed)"/>
  <line x1="160" y1="188" x2="232" y2="250" stroke="#f87171" stroke-width="1.5" stroke-dasharray="5,3" marker-end="url(#aRed)"/>
  <line x1="100" y1="188" x2="80" y2="318" stroke="#f87171" stroke-width="1.5" stroke-dasharray="5,3" marker-end="url(#aRed)"/>
  <line x1="180" y1="188" x2="232" y2="318" stroke="#f87171" stroke-width="1.5" stroke-dasharray="5,3" marker-end="url(#aRed)"/>
  <line x1="140" y1="188" x2="394" y2="250" stroke="#c084fc" stroke-width="1.5" stroke-dasharray="5,3" marker-end="url(#aPurple)"/>

  <!-- Tower children -->
  <rect x="508" y="250" width="150" height="50" rx="8" fill="#052e16" stroke="#4ade80" stroke-width="1.5"/>
  <text x="583" y="272" text-anchor="middle" font-family="'Trebuchet MS',Arial" font-size="12" font-weight="bold" fill="#86efac">CannonTower</text>
  <text x="583" y="290" text-anchor="middle" font-family="'Courier New',monospace" font-size="9" fill="#bbf7d0">Dmg 50 · R 120</text>

  <rect x="668" y="250" width="150" height="50" rx="8" fill="#052e16" stroke="#4ade80" stroke-width="1.5"/>
  <text x="743" y="272" text-anchor="middle" font-family="'Trebuchet MS',Arial" font-size="12" font-weight="bold" fill="#86efac">SniperTower</text>
  <text x="743" y="290" text-anchor="middle" font-family="'Courier New',monospace" font-size="9" fill="#bbf7d0">Dmg 80 · R 200</text>

  <rect x="508" y="318" width="150" height="50" rx="8" fill="#052e16" stroke="#4ade80" stroke-width="1.5"/>
  <text x="583" y="340" text-anchor="middle" font-family="'Trebuchet MS',Arial" font-size="12" font-weight="bold" fill="#86efac">MachineGun</text>
  <text x="583" y="358" text-anchor="middle" font-family="'Courier New',monospace" font-size="9" fill="#bbf7d0">Dmg 20 · RoF ×5</text>

  <rect x="668" y="318" width="150" height="50" rx="8" fill="#052e16" stroke="#4ade80" stroke-width="1.5"/>
  <text x="743" y="340" text-anchor="middle" font-family="'Trebuchet MS',Arial" font-size="12" font-weight="bold" fill="#86efac">SlowTower</text>
  <text x="743" y="358" text-anchor="middle" font-family="'Courier New',monospace" font-size="9" fill="#bbf7d0">Slows 45% · R 120</text>

  <!-- AbdTower (custom) -->
  <rect x="588" y="250" width="170" height="50" rx="8" fill="#14532d" stroke="#4ade80" stroke-width="2"/>
  <!-- re-positioned as 5th -->
  <rect x="480" y="250" width="176" height="50" rx="8" fill="#2d5014" stroke="#86efac" stroke-width="2"/>
  <!-- Actually let's put AbdTower in a distinct spot -->

  <!-- Tower arrows -->
  <line x1="660" y1="188" x2="583" y2="250" stroke="#4ade80" stroke-width="1.5" stroke-dasharray="5,3" marker-end="url(#aGreen)"/>
  <line x1="720" y1="188" x2="743" y2="250" stroke="#4ade80" stroke-width="1.5" stroke-dasharray="5,3" marker-end="url(#aGreen)"/>
  <line x1="650" y1="188" x2="583" y2="318" stroke="#4ade80" stroke-width="1.5" stroke-dasharray="5,3" marker-end="url(#aGreen)"/>
  <line x1="730" y1="188" x2="743" y2="318" stroke="#4ade80" stroke-width="1.5" stroke-dasharray="5,3" marker-end="url(#aGreen)"/>

  <!-- Legend -->
  <rect x="340" y="250" width="160" height="118" rx="8" fill="#0d0d2e" stroke="#1e293b" stroke-width="1"/>
  <text x="420" y="270" text-anchor="middle" font-family="Arial" font-size="10" font-weight="bold" fill="#64748b">LEGEND</text>
  <line x1="352" y1="284" x2="386" y2="284" stroke="#60a5fa" stroke-width="2"/>
  <text x="392" y="288" font-family="Arial" font-size="9" fill="#93c5fd">Concrete inherit</text>
  <line x1="352" y1="300" x2="386" y2="300" stroke="#60a5fa" stroke-width="2" stroke-dasharray="4,3"/>
  <text x="392" y="304" font-family="Arial" font-size="9" fill="#93c5fd">Abstract inherit</text>
  <rect x="350" y="316" width="12" height="8" rx="2" fill="#2d0a50" stroke="#c084fc" stroke-width="1"/>
  <text x="368" y="324" font-family="Arial" font-size="9" fill="#e9d5ff">Custom class ✦</text>
  <rect x="350" y="334" width="12" height="8" rx="2" fill="#450a0a" stroke="#f87171" stroke-width="1"/>
  <text x="368" y="342" font-family="Arial" font-size="9" fill="#fca5a5">Enemy subclass</text>
  <rect x="350" y="350" width="12" height="8" rx="2" fill="#052e16" stroke="#4ade80" stroke-width="1"/>
  <text x="368" y="358" font-family="Arial" font-size="9" fill="#86efac">Tower subclass</text>
</svg>
