<svg width="900" height="500" viewBox="0 0 900 500" xmlns="http://www.w3.org/2000/svg">
  <defs>

    <!-- ── Gradients ── -->
    <linearGradient id="bgGrad" x1="0%" y1="0%" x2="100%" y2="100%">
      <stop offset="0%"   stop-color="#030712"/>
      <stop offset="100%" stop-color="#0f172a"/>
    </linearGradient>
    <linearGradient id="pathGrad" x1="0%" y1="0%" x2="100%" y2="0%">
      <stop offset="0%"   stop-color="#92400e"/>
      <stop offset="100%" stop-color="#b45309"/>
    </linearGradient>
    <linearGradient id="titleGrad" x1="0%" y1="0%" x2="100%" y2="0%">
      <stop offset="0%"   stop-color="#4ade80"/>
      <stop offset="40%"  stop-color="#facc15"/>
      <stop offset="100%" stop-color="#f97316"/>
    </linearGradient>
    <linearGradient id="greenLine" x1="0%" y1="0%" x2="100%" y2="0%">
      <stop offset="0%"   stop-color="#4ade80" stop-opacity="0"/>
      <stop offset="20%"  stop-color="#4ade80"/>
      <stop offset="80%"  stop-color="#f97316"/>
      <stop offset="100%" stop-color="#f97316" stop-opacity="0"/>
    </linearGradient>
    <linearGradient id="scanLine" x1="0%" y1="0%" x2="0%" y2="100%">
      <stop offset="0%"   stop-color="#4ade80" stop-opacity="0"/>
      <stop offset="50%"  stop-color="#4ade80" stop-opacity="0.06"/>
      <stop offset="100%" stop-color="#4ade80" stop-opacity="0"/>
    </linearGradient>
    <linearGradient id="cannonGrad" x1="0%" y1="0%" x2="100%" y2="100%">
      <stop offset="0%"   stop-color="#ef4444"/>
      <stop offset="100%" stop-color="#7f1d1d"/>
    </linearGradient>
    <linearGradient id="sniperGrad" x1="0%" y1="0%" x2="100%" y2="100%">
      <stop offset="0%"   stop-color="#38bdf8"/>
      <stop offset="100%" stop-color="#0c4a6e"/>
    </linearGradient>
    <linearGradient id="buffGrad" x1="0%" y1="0%" x2="100%" y2="100%">
      <stop offset="0%"   stop-color="#4ade80"/>
      <stop offset="100%" stop-color="#14532d"/>
    </linearGradient>
    <linearGradient id="slowGrad" x1="0%" y1="0%" x2="100%" y2="100%">
      <stop offset="0%"   stop-color="#818cf8"/>
      <stop offset="100%" stop-color="#1e1b4b"/>
    </linearGradient>
    <linearGradient id="mgGrad" x1="0%" y1="0%" x2="100%" y2="100%">
      <stop offset="0%"   stop-color="#c084fc"/>
      <stop offset="100%" stop-color="#3b0764"/>
    </linearGradient>
    <linearGradient id="hudGrad" x1="0%" y1="0%" x2="100%" y2="0%">
      <stop offset="0%"   stop-color="#0f172a"/>
      <stop offset="100%" stop-color="#1e293b"/>
    </linearGradient>
    <linearGradient id="waveBar" x1="0%" y1="0%" x2="100%" y2="0%">
      <stop offset="0%"   stop-color="#4ade80"/>
      <stop offset="60%"  stop-color="#facc15"/>
      <stop offset="100%" stop-color="#ef4444"/>
    </linearGradient>

    <!-- ── Filters ── -->
    <filter id="glow" x="-20%" y="-20%" width="140%" height="140%">
      <feGaussianBlur stdDeviation="4" result="blur"/>
      <feMerge><feMergeNode in="blur"/><feMergeNode in="SourceGraphic"/></feMerge>
    </filter>
    <filter id="softGlow" x="-30%" y="-30%" width="160%" height="160%">
      <feGaussianBlur stdDeviation="8" result="blur"/>
      <feMerge><feMergeNode in="blur"/><feMergeNode in="SourceGraphic"/></feMerge>
    </filter>
    <filter id="dropShadow">
      <feDropShadow dx="0" dy="2" stdDeviation="3" flood-color="#000" flood-opacity="0.8"/>
    </filter>
    <filter id="rangeGlow" x="-50%" y="-50%" width="200%" height="200%">
      <feGaussianBlur stdDeviation="6" result="blur"/>
      <feMerge><feMergeNode in="blur"/><feMergeNode in="SourceGraphic"/></feMerge>
    </filter>

    <!-- ── Clip path for main frame ── -->
    <clipPath id="frameClip">
      <rect width="900" height="500" rx="18"/>
    </clipPath>

    <!-- ── Animations ── -->
    <style>
      .pulse-ring {
        animation: pulseRing 2s ease-in-out infinite;
        transform-origin: center;
      }
      @keyframes pulseRing {
        0%,100% { opacity: 0.2; r: 38; }
        50%      { opacity: 0.7; r: 46; }
      }
      .bullet1 { animation: moveBullet1 2.4s linear infinite; }
      @keyframes moveBullet1 {
        0%   { transform: translate(0,0);   opacity:1; }
        100% { transform: translate(120px,-30px); opacity:0; }
      }
      .bullet2 { animation: moveBullet2 1.8s linear infinite 0.6s; }
      @keyframes moveBullet2 {
        0%   { transform: translate(0,0);   opacity:1; }
        100% { transform: translate(-90px,20px); opacity:0; }
      }
      .bullet3 { animation: moveBullet3 1.2s linear infinite 0.3s; }
      @keyframes moveBullet3 {
        0%   { transform: translate(0,0);   opacity:1; }
        100% { transform: translate(60px,10px); opacity:0; }
      }
      .enemy-walk { animation: enemyWalk 4s linear infinite; }
      @keyframes enemyWalk {
        0%   { transform: translateX(0px); }
        100% { transform: translateX(-140px); }
      }
      .enemy-walk2 { animation: enemyWalk 5.5s linear infinite 1.2s; }
      .enemy-walk3 { animation: enemyWalk 3.8s linear infinite 2.4s; }
      .scan { animation: scanMove 3s ease-in-out infinite; }
      @keyframes scanMove {
        0%,100% { transform: translateY(0px);   }
        50%      { transform: translateY(440px); }
      }
      .blink { animation: blink 1.2s step-end infinite; }
      @keyframes blink { 0%,100%{opacity:1} 50%{opacity:0} }
      .hp-flash { animation: hpFlash 1.5s ease-in-out infinite; }
      @keyframes hpFlash {
        0%,100%{ fill:#4ade80; }
        50%    { fill:#facc15; }
      }
    </style>
  </defs>

  <!-- ═══════════ BACKGROUND ═══════════ -->
  <g clip-path="url(#frameClip)">
    <rect width="900" height="500" fill="url(#bgGrad)"/>

    <!-- CRT scanline overlay -->
    <rect class="scan" width="900" height="60" fill="url(#scanLine)" opacity="0.5"/>

    <!-- Grid (map tiles) -->
    <g opacity="0.07" stroke="#4ade80" stroke-width="0.6">
      <!-- Horizontal lines -->
      <line x1="0" y1="55"  x2="900" y2="55"/>
      <line x1="0" y1="105" x2="900" y2="105"/>
      <line x1="0" y1="155" x2="900" y2="155"/>
      <line x1="0" y1="205" x2="900" y2="205"/>
      <line x1="0" y1="255" x2="900" y2="255"/>
      <line x1="0" y1="305" x2="900" y2="305"/>
      <line x1="0" y1="355" x2="900" y2="355"/>
      <line x1="0" y1="405" x2="900" y2="405"/>
      <line x1="0" y1="455" x2="900" y2="455"/>
      <!-- Vertical lines -->
      <line x1="50"  y1="0" x2="50"  y2="500"/>
      <line x1="100" y1="0" x2="100" y2="500"/>
      <line x1="150" y1="0" x2="150" y2="500"/>
      <line x1="200" y1="0" x2="200" y2="500"/>
      <line x1="250" y1="0" x2="250" y2="500"/>
      <line x1="300" y1="0" x2="300" y2="500"/>
      <line x1="350" y1="0" x2="350" y2="500"/>
      <line x1="400" y1="0" x2="400" y2="500"/>
      <line x1="450" y1="0" x2="450" y2="500"/>
      <line x1="500" y1="0" x2="500" y2="500"/>
      <line x1="550" y1="0" x2="550" y2="500"/>
      <line x1="600" y1="0" x2="600" y2="500"/>
      <line x1="650" y1="0" x2="650" y2="500"/>
      <line x1="700" y1="0" x2="700" y2="500"/>
      <line x1="750" y1="0" x2="750" y2="500"/>
      <line x1="800" y1="0" x2="800" y2="500"/>
      <line x1="850" y1="0" x2="850" y2="500"/>
    </g>

    <!-- ═══════════ PATH TILES ═══════════ -->
    <!-- Horizontal segment (row 5, cols 0–9) -->
    <rect x="0"   y="228" width="50" height="50" fill="#92400e" opacity="0.55"/>
    <rect x="50"  y="228" width="50" height="50" fill="#92400e" opacity="0.55"/>
    <rect x="100" y="228" width="50" height="50" fill="#92400e" opacity="0.55"/>
    <rect x="150" y="228" width="50" height="50" fill="#92400e" opacity="0.55"/>
    <rect x="200" y="228" width="50" height="50" fill="#92400e" opacity="0.55"/>
    <rect x="250" y="228" width="50" height="50" fill="#92400e" opacity="0.55"/>
    <rect x="300" y="228" width="50" height="50" fill="#92400e" opacity="0.55"/>
    <!-- Turn down -->
    <rect x="300" y="278" width="50" height="50" fill="#92400e" opacity="0.55"/>
    <rect x="300" y="328" width="50" height="50" fill="#92400e" opacity="0.55"/>
    <rect x="300" y="378" width="50" height="50" fill="#92400e" opacity="0.55"/>
    <!-- Turn right -->
    <rect x="350" y="378" width="50" height="50" fill="#92400e" opacity="0.55"/>
    <rect x="400" y="378" width="50" height="50" fill="#92400e" opacity="0.55"/>
    <rect x="450" y="378" width="50" height="50" fill="#92400e" opacity="0.55"/>
    <rect x="500" y="378" width="50" height="50" fill="#92400e" opacity="0.55"/>
    <rect x="550" y="378" width="50" height="50" fill="#92400e" opacity="0.55"/>
    <rect x="600" y="378" width="50" height="50" fill="#92400e" opacity="0.55"/>
    <rect x="650" y="378" width="50" height="50" fill="#92400e" opacity="0.55"/>
    <rect x="700" y="378" width="50" height="50" fill="#92400e" opacity="0.55"/>
    <rect x="750" y="378" width="50" height="50" fill="#92400e" opacity="0.55"/>
    <rect x="800" y="378" width="50" height="50" fill="#92400e" opacity="0.55"/>
    <rect x="850" y="378" width="50" height="50" fill="#92400e" opacity="0.55"/>

    <!-- Path direction arrows (subtle) -->
    <text x="170" y="260" font-size="14" fill="#fde68a" opacity="0.4" font-family="Arial">➜ ➜ ➜ ➜ ➜</text>
    <text x="312" y="360" font-size="14" fill="#fde68a" opacity="0.4" font-family="Arial" writing-mode="tb">➜ ➜</text>
    <text x="380" y="410" font-size="14" fill="#fde68a" opacity="0.4" font-family="Arial">➜ ➜ ➜ ➜ ➜ ➜ ➜ ➜ ➜</text>

    <!-- START label -->
    <rect x="0" y="248" width="52" height="18" rx="3" fill="#4ade80" opacity="0.15"/>
    <text x="26" y="261" text-anchor="middle" font-family="'Courier New', monospace" font-size="9" fill="#4ade80" font-weight="bold">START</text>

    <!-- EXIT label -->
    <rect x="848" y="388" width="52" height="18" rx="3" fill="#ef4444" opacity="0.15"/>
    <text x="874" y="401" text-anchor="middle" font-family="'Courier New', monospace" font-size="9" fill="#ef4444" font-weight="bold">EXIT</text>

    <!-- ═══════════ TOWER — CANNON (left, range ring visible) ═══════════ -->
    <!-- Range ring -->
    <circle cx="180" cy="178" r="90" fill="none" stroke="#ef4444" stroke-width="1" opacity="0.18" filter="url(#rangeGlow)"/>
    <circle cx="180" cy="178" r="90" class="pulse-ring" fill="none" stroke="#ef4444" stroke-width="1.5" opacity="0.3"/>
    <!-- Base -->
    <rect x="161" y="159" width="38" height="38" rx="5" fill="url(#cannonGrad)" filter="url(#dropShadow)"/>
    <rect x="161" y="159" width="38" height="38" rx="5" fill="none" stroke="#f87171" stroke-width="1.5"/>
    <!-- Barrel pointing right-down -->
    <rect x="180" y="175" width="28" height="7" rx="2" fill="#1e1e1e" transform="rotate(30,180,178)"/>
    <!-- HP bar -->
    <rect x="161" y="200" width="38" height="4" rx="2" fill="#dc2626"/>
    <rect x="161" y="200" width="30" height="4" rx="2" fill="#4ade80"/>
    <!-- Label -->
    <text x="180" y="215" text-anchor="middle" font-family="'Courier New', monospace" font-size="9" fill="#fca5a5">CANNON</text>
    <!-- Level pip -->
    <circle cx="172" cy="222" r="3" fill="#facc15"/>
    <circle cx="180" cy="222" r="3" fill="#facc15"/>
    <circle cx="188" cy="222" r="3" fill="#374151"/>

    <!-- ═══════════ TOWER — SNIPER (top-right area) ═══════════ -->
    <circle cx="490" cy="130" r="115" fill="none" stroke="#38bdf8" stroke-width="1" opacity="0.12" filter="url(#rangeGlow)"/>
    <rect x="471" y="111" width="38" height="46" rx="5" fill="url(#sniperGrad)" filter="url(#dropShadow)"/>
    <rect x="471" y="111" width="38" height="46" rx="5" fill="none" stroke="#7dd3fc" stroke-width="1.5"/>
    <!-- Long barrel -->
    <rect x="490" y="131" width="36" height="5" rx="2" fill="#0a0a0a" transform="rotate(-20,490,134)"/>
    <rect x="490" y="130" width="4" height="5" rx="1" fill="#1e3a5f"/>
    <rect x="490" y="160" width="38" height="4" rx="2" fill="#dc2626"/>
    <rect x="490" y="160" width="38" height="4" rx="2" fill="#4ade80"/>
    <text x="490" y="175" text-anchor="middle" font-family="'Courier New', monospace" font-size="9" fill="#7dd3fc">SNIPER</text>
    <circle cx="482" cy="182" r="3" fill="#facc15"/>
    <circle cx="490" cy="182" r="3" fill="#facc15"/>
    <circle cx="498" cy="182" r="3" fill="#facc15"/>

    <!-- ═══════════ TOWER — BUFF (center) ═══════════ -->
    <circle cx="390" cy="310" r="70" fill="none" stroke="#4ade80" stroke-width="1.5" opacity="0.15" filter="url(#rangeGlow)"/>
    <circle cx="390" cy="310" r="70" class="pulse-ring" fill="none" stroke="#4ade80" stroke-width="1" opacity="0.25"/>
    <rect x="371" y="291" width="38" height="38" rx="5" fill="url(#buffGrad)" filter="url(#dropShadow)"/>
    <rect x="371" y="291" width="38" height="38" rx="5" fill="none" stroke="#86efac" stroke-width="1.5"/>
    <!-- Star symbol inside -->
    <text x="390" y="316" text-anchor="middle" font-family="Arial" font-size="18" fill="#facc15" filter="url(#glow)">★</text>
    <rect x="371" y="332" width="38" height="4" rx="2" fill="#dc2626"/>
    <rect x="371" y="332" width="28" height="4" rx="2" fill="#4ade80"/>
    <text x="390" y="347" text-anchor="middle" font-family="'Courier New', monospace" font-size="9" fill="#86efac">BUFF +50%</text>
    <circle cx="382" cy="354" r="3" fill="#facc15"/>
    <circle cx="390" cy="354" r="3" fill="#facc15"/>
    <circle cx="398" cy="354" r="3" fill="#374151"/>

    <!-- ═══════════ TOWER — SLOW (upper area) ═══════════ -->
    <circle cx="670" cy="200" r="80" fill="none" stroke="#818cf8" stroke-width="1" opacity="0.15" filter="url(#rangeGlow)"/>
    <rect x="651" y="181" width="38" height="38" rx="5" fill="url(#slowGrad)" filter="url(#dropShadow)"/>
    <rect x="651" y="181" width="38" height="38" rx="5" fill="none" stroke="#a5b4fc" stroke-width="1.5"/>
    <!-- Snowflake / slow symbol -->
    <text x="670" y="206" text-anchor="middle" font-family="Arial" font-size="18" fill="#c7d2fe" filter="url(#glow)">❄</text>
    <rect x="651" y="222" width="38" height="4" rx="2" fill="#dc2626"/>
    <rect x="651" y="222" width="22" height="4" rx="2" fill="#4ade80"/>
    <text x="670" y="237" text-anchor="middle" font-family="'Courier New', monospace" font-size="9" fill="#a5b4fc">SLOW 45%</text>
    <circle cx="662" cy="244" r="3" fill="#facc15"/>
    <circle cx="670" cy="244" r="3" fill="#374151"/>
    <circle cx="678" cy="244" r="3" fill="#374151"/>

    <!-- ═══════════ TOWER — MACHINE GUN (lower right) ═══════════ -->
    <circle cx="780" cy="310" r="65" fill="none" stroke="#c084fc" stroke-width="1" opacity="0.15" filter="url(#rangeGlow)"/>
    <rect x="761" y="291" width="38" height="38" rx="5" fill="url(#mgGrad)" filter="url(#dropShadow)"/>
    <rect x="761" y="291" width="38" height="38" rx="5" fill="none" stroke="#d8b4fe" stroke-width="1.5"/>
    <!-- Triple barrel -->
    <rect x="799" y="305" width="18" height="4" rx="1" fill="#0a0a0a"/>
    <rect x="799" y="311" width="14" height="3" rx="1" fill="#0a0a0a"/>
    <rect x="799" y="317" width="18" height="4" rx="1" fill="#0a0a0a"/>
    <rect x="761" y="332" width="38" height="4" rx="2" fill="#dc2626"/>
    <rect x="761" y="332" width="14" height="4" rx="2" fill="#4ade80"/>
    <text x="780" y="347" text-anchor="middle" font-family="'Courier New', monospace" font-size="9" fill="#d8b4fe">MG ×5 RoF</text>
    <circle cx="772" cy="354" r="3" fill="#facc15"/>
    <circle cx="780" cy="354" r="3" fill="#374151"/>
    <circle cx="788" cy="354" r="3" fill="#374151"/>

    <!-- ═══════════ ENEMIES (walking on path) ═══════════ -->
    <!-- Enemy 1 – Basic (red, on horizontal path) -->
    <g class="enemy-walk">
      <circle cx="90" cy="253" r="14" fill="#dc2626" filter="url(#dropShadow)"/>
      <rect x="76" y="238" width="28" height="4" rx="2" fill="#7f1d1d"/>
      <rect x="76" y="238" width="20" height="4" rx="2" fill="#4ade80"/>
      <text x="90" y="257" text-anchor="middle" font-family="Arial" font-size="9" fill="#fff" font-weight="bold">B</text>
    </g>

    <!-- Enemy 2 – Fast (teal, slightly ahead) -->
    <g class="enemy-walk2">
      <circle cx="155" cy="253" r="11" fill="#0f766e" filter="url(#dropShadow)"/>
      <rect x="144" y="238" width="22" height="4" rx="2" fill="#134e4a"/>
      <rect x="144" y="238" width="18" height="4" rx="2" fill="#4ade80"/>
      <text x="155" y="257" text-anchor="middle" font-family="Arial" font-size="9" fill="#5eead4" font-weight="bold">F</text>
    </g>

    <!-- Enemy 3 – Tank (brown, large) -->
    <g class="enemy-walk3">
      <circle cx="240" cy="253" r="17" fill="#78350f" filter="url(#dropShadow)"/>
      <rect x="223" y="234" width="34" height="5" rx="2" fill="#450a0a"/>
      <rect x="223" y="234" width="34" height="5" rx="2" fill="#dc2626"/>
      <rect x="223" y="234" width="30" height="5" rx="2" fill="#4ade80"/>
      <text x="240" y="258" text-anchor="middle" font-family="Arial" font-size="10" fill="#fde68a" font-weight="bold">T</text>
    </g>

    <!-- Enemy 4 – Shielded (blue, on lower path) -->
    <circle cx="530" cy="403" r="13" fill="#4338ca" filter="url(#dropShadow)"/>
    <circle cx="530" cy="403" r="18" fill="none" stroke="#818cf8" stroke-width="2.5" opacity="0.6" class="pulse-ring"/>
    <rect x="517" y="385" width="26" height="4" rx="2" fill="#1e1b4b"/>
    <rect x="517" y="385" width="18" height="4" rx="2" fill="#4ade80"/>
    <text x="530" y="407" text-anchor="middle" font-family="Arial" font-size="9" fill="#c7d2fe" font-weight="bold">S</text>

    <!-- Enemy 5 – Flying (bright green, floating above path) -->
    <circle cx="640" cy="200" r="12" fill="#15803d" filter="url(#dropShadow)"/>
    <!-- Wings -->
    <ellipse cx="624" cy="196" rx="12" ry="5" fill="#166534" opacity="0.7"/>
    <ellipse cx="656" cy="196" rx="12" ry="5" fill="#166534" opacity="0.7"/>
    <rect x="628" y="183" width="24" height="4" rx="2" fill="#14532d"/>
    <rect x="628" y="183" width="20" height="4" rx="2" fill="#4ade80"/>
    <text x="640" y="204" text-anchor="middle" font-family="Arial" font-size="9" fill="#bbf7d0" font-weight="bold">✈</text>

    <!-- ═══════════ BULLETS ═══════════ -->
    <!-- Cannon bullet (toward enemy) -->
    <circle class="bullet1" cx="198" cy="195" r="5" fill="#facc15" filter="url(#glow)"/>
    <!-- Sniper bullet (long shot) -->
    <circle class="bullet2" cx="470" cy="147" r="4" fill="#7dd3fc" filter="url(#glow)"/>
    <ellipse class="bullet2" cx="460" cy="150" rx="8" ry="2" fill="#bae6fd" opacity="0.4"/>
    <!-- Machine gun burst -->
    <circle class="bullet3" cx="800" cy="370" r="3" fill="#d8b4fe" filter="url(#glow)"/>
    <circle class="bullet3" cx="808" cy="368" r="3" fill="#d8b4fe" filter="url(#glow)" style="animation-delay:0.1s"/>
    <circle class="bullet3" cx="816" cy="366" r="3" fill="#d8b4fe" filter="url(#glow)" style="animation-delay:0.2s"/>

    <!-- ═══════════ HUD BAR (top) ═══════════ -->
    <rect x="0" y="0" width="900" height="46" fill="url(#hudGrad)" opacity="0.96"/>
    <line x1="0" y1="46" x2="900" y2="46" stroke="url(#greenLine)" stroke-width="1.5"/>

    <!-- HUD text items -->
    <text x="16" y="28" font-family="'Courier New', monospace" font-size="11" fill="#94a3b8">WAVE</text>
    <text x="60" y="28" font-family="'Courier New', monospace" font-size="14" fill="#facc15" font-weight="bold">4/5</text>

    <!-- Wave progress bar -->
    <rect x="90" y="18" width="80" height="10" rx="3" fill="#1e293b"/>
    <rect x="90" y="18" width="64" height="10" rx="3" fill="url(#waveBar)"/>
    <text x="177" y="28" font-family="'Courier New', monospace" font-size="10" fill="#64748b">80%</text>

    <text x="210" y="28" font-family="'Courier New', monospace" font-size="11" fill="#94a3b8">GOLD</text>
    <text x="256" y="28" font-family="'Courier New', monospace" font-size="14" fill="#facc15" font-weight="bold">265</text>

    <text x="310" y="28" font-family="'Courier New', monospace" font-size="11" fill="#94a3b8">LIVES</text>
    <text x="358" y="28" font-family="'Courier New', monospace" font-size="14" fill="#4ade80" font-weight="bold">10 ♥</text>

    <text x="420" y="28" font-family="'Courier New', monospace" font-size="11" fill="#94a3b8">SCORE</text>
    <text x="472" y="28" font-family="'Courier New', monospace" font-size="14" fill="#c084fc" font-weight="bold">1805</text>

    <text x="545" y="28" font-family="'Courier New', monospace" font-size="11" fill="#94a3b8">MAP</text>
    <text x="577" y="28" font-family="'Courier New', monospace" font-size="14" fill="#38bdf8" font-weight="bold">1</text>

    <!-- Active tower icons in HUD -->
    <rect x="630" y="10" width="18" height="18" rx="3" fill="#ef4444" opacity="0.9"/>
    <rect x="654" y="10" width="14" height="18" rx="3" fill="#38bdf8" opacity="0.9"/>
    <rect x="674" y="10" width="18" height="18" rx="3" fill="#4ade80" opacity="0.9"/>
    <rect x="698" y="10" width="18" height="18" rx="3" fill="#818cf8" opacity="0.9"/>
    <rect x="722" y="10" width="18" height="18" rx="3" fill="#c084fc" opacity="0.9"/>
    <text x="750" y="23" font-family="'Courier New', monospace" font-size="9" fill="#64748b">TOWERS</text>

    <!-- ═══════════ TITLE BLOCK ═══════════ -->
    <!-- Terminal bar behind title -->
    <rect x="200" y="62" width="500" height="92" rx="12"
          fill="#0f172a" opacity="0.92" stroke="#1e293b" stroke-width="1.5"/>

    <!-- Terminal dots -->
    <circle cx="220" cy="79" r="5" fill="#ef4444" opacity="0.8"/>
    <circle cx="234" cy="79" r="5" fill="#facc15" opacity="0.8"/>
    <circle cx="248" cy="79" r="5" fill="#4ade80" opacity="0.8"/>
    <text x="262" y="83" font-family="'Courier New', monospace" font-size="9" fill="#374151">tower-defense.exe</text>

    <line x1="208" y1="90" x2="692" y2="90" stroke="#1e293b" stroke-width="1"/>

    <!-- Main title -->
    <text x="450" y="126"
          text-anchor="middle"
          font-family="'Segoe UI', Arial, sans-serif"
          font-size="38" font-weight="900" letter-spacing="4"
          fill="url(#titleGrad)" filter="url(#softGlow)">
      TOWER  DEFENSE
    </text>

    <!-- Cursor blink -->
    <rect class="blink" x="638" y="104" width="3" height="26" rx="1" fill="#4ade80"/>

    <!-- ═══════════ TAG LINE ROW ═══════════ -->
    <rect x="200" y="162" width="500" height="28" rx="6"
          fill="#0f172a" opacity="0.85" stroke="#1e293b" stroke-width="1"/>
    <text x="450" y="180"
          text-anchor="middle"
          font-family="'Courier New', monospace"
          font-size="11" fill="#64748b" letter-spacing="3">
      &lt; Built from Scratch · No Frameworks · Pure C++ /&gt;
    </text>

    <!-- ═══════════ BADGE ROW ═══════════ -->
    <!-- C++ -->
    <rect x="156" y="446" width="54" height="22" rx="4" fill="#00599c"/>
    <text x="157" y="461" font-family="Arial" font-size="10" font-weight="bold" fill="#fff">C++</text>
    <text x="183" y="461" font-family="Arial" font-size="10" fill="#7dd3fc">17</text>

    <!-- SFML -->
    <rect x="216" y="446" width="58" height="22" rx="4" fill="#8cc445"/>
    <text x="218" y="461" font-family="Arial" font-size="10" font-weight="bold" fill="#fff">SFML</text>
    <text x="245" y="461" font-family="Arial" font-size="10" fill="#f0fdf4">2.x</text>

    <!-- OOP -->
    <rect x="280" y="446" width="50" height="22" rx="4" fill="#7c3aed"/>
    <text x="282" y="461" font-family="Arial" font-size="10" font-weight="bold" fill="#fff">OOP</text>
    <text x="303" y="461" font-family="Arial" font-size="10" fill="#e9d5ff">Yes</text>

    <!-- Waves -->
    <rect x="336" y="446" width="62" height="22" rx="4" fill="#0f172a" stroke="#4ade80" stroke-width="1"/>
    <text x="338" y="461" font-family="Arial" font-size="10" font-weight="bold" fill="#94a3b8">Waves</text>
    <text x="370" y="461" font-family="Arial" font-size="10" fill="#4ade80">5</text>

    <!-- Maps -->
    <rect x="404" y="446" width="58" height="22" rx="4" fill="#0f172a" stroke="#38bdf8" stroke-width="1"/>
    <text x="406" y="461" font-family="Arial" font-size="10" font-weight="bold" fill="#94a3b8">Maps</text>
    <text x="432" y="461" font-family="Arial" font-size="10" fill="#38bdf8">3</text>

    <!-- Enemies -->
    <rect x="468" y="446" width="72" height="22" rx="4" fill="#0f172a" stroke="#f87171" stroke-width="1"/>
    <text x="470" y="461" font-family="Arial" font-size="10" font-weight="bold" fill="#94a3b8">Enemies</text>
    <text x="523" y="461" font-family="Arial" font-size="10" fill="#f87171">5</text>

    <!-- Towers -->
    <rect x="546" y="446" width="70" height="22" rx="4" fill="#0f172a" stroke="#facc15" stroke-width="1"/>
    <text x="548" y="461" font-family="Arial" font-size="10" font-weight="bold" fill="#94a3b8">Towers</text>
    <text x="601" y="461" font-family="Arial" font-size="10" fill="#facc15">5</text>

    <!-- Sound -->
    <rect x="622" y="446" width="70" height="22" rx="4" fill="#0f172a" stroke="#c084fc" stroke-width="1"/>
    <text x="624" y="461" font-family="Arial" font-size="10" font-weight="bold" fill="#94a3b8">Sound FX</text>
    <text x="671" y="461" font-family="Arial" font-size="10" fill="#c084fc">11</text>

    <!-- Upgrades -->
    <rect x="698" y="446" width="82" height="22" rx="4" fill="#4ade80"/>
    <text x="700" y="461" font-family="Arial" font-size="10" font-weight="bold" fill="#052e16">Upgrades</text>
    <text x="752" y="461" font-family="Arial" font-size="10" fill="#052e16">Lv 1-3</text>

    <!-- ═══════════ FOOTER ═══════════ -->
    <line x1="0" y1="475" x2="900" y2="475" stroke="url(#greenLine)" stroke-width="1"/>
    <rect x="0" y="475" width="900" height="25" fill="#030712" opacity="0.9"/>

    <!-- Social / links style row (like portfolio) -->
    <text x="30"  y="491" font-family="'Courier New', monospace" font-size="10" fill="#4ade80">⚔</text>
    <text x="45"  y="491" font-family="'Courier New', monospace" font-size="9"  fill="#64748b">github.com/Abd-Abdullah83/Defence-Tower-Game-</text>

    <text x="490" y="491" font-family="'Courier New', monospace" font-size="9" fill="#64748b">Made with</text>
    <text x="543" y="491" font-family="'Courier New', monospace" font-size="9" fill="#ef4444">♥</text>
    <text x="554" y="491" font-family="'Courier New', monospace" font-size="9" fill="#64748b">in Pakistan 🇵🇰 · © 2026 Abdullah Tahir</text>

    <!-- Outer border glow -->
    <rect width="900" height="500" rx="18" fill="none"
          stroke="url(#titleGrad)" stroke-width="2" opacity="0.4"/>
  </g>
</svg>
